<svg width="18" height="18" viewBox="0 0 18 18" fill="none" xmlns="http://www.w3.org/2000/svg">
<path fill-rule="evenodd" clip-rule="evenodd" d="M9.30134 4.34051C10.285 4.34051 11.034 4.3405 11.6315 4.4033C12.1035 4.45291 12.5099 4.54388 12.8917 4.71891C13.6191 5.05235 14.2348 5.58849 14.6651 6.26306C14.9256 6.67135 15.0802 7.12809 15.2016 7.68525C15.3205 8.2311 15.415 8.91161 15.5353 9.77735L15.5419 9.82536C15.6967 10.9395 15.8177 11.8105 15.8544 12.5121C15.8917 13.2244 15.8466 13.818 15.6323 14.3629C15.2821 15.2536 14.6354 15.9963 13.8014 16.4657C13.2911 16.7529 12.7093 16.8793 11.9987 16.9403C11.2987 17.0005 10.4194 17.0005 9.2946 17.0005H8.06758C6.94276 17.0005 6.06343 17.0005 5.3635 16.9403C4.65284 16.8793 4.07111 16.7529 3.56081 16.4657C2.72676 15.9963 2.0801 15.2536 1.72988 14.3629C1.5156 13.818 1.47047 13.2244 1.50777 12.5121C1.54452 11.8105 1.66549 10.9396 1.82023 9.82544L1.82689 9.77749C1.94714 8.91168 2.04166 8.23113 2.16061 7.68525C2.28202 7.12809 2.43657 6.67135 2.69703 6.26306C3.12736 5.58849 3.74312 5.05235 4.47047 4.71891C4.85228 4.54388 5.25869 4.45291 5.73068 4.4033C6.32821 4.3405 7.0772 4.34051 8.06083 4.34051H9.30134ZM5.24485 4.15966C5.24485 2.26186 6.78332 0.723389 8.68112 0.723389C10.5789 0.723389 12.1174 2.26186 12.1174 4.15966V7.77678C12.1174 8.07644 11.8745 8.31935 11.5748 8.31935C11.2752 8.31935 11.0323 8.07644 11.0323 7.77678V4.15966C11.0323 2.86116 9.97962 1.80853 8.68112 1.80853C7.38263 1.80853 6.32999 2.86116 6.32999 4.15966V7.77678C6.32999 8.07644 6.08708 8.31935 5.78742 8.31935C5.48777 8.31935 5.24485 8.07644 5.24485 7.77678V4.15966Z" fill="white"/>
</svg>
